<svg width="20" height="20" viewBox="0 0 20 20" fill="none" xmlns="http://www.w3.org/2000/svg">
<path d="M4.16665 10.8333H14.05L11.025 14.4667C10.9549 14.5509 10.9022 14.6482 10.8697 14.7528C10.8373 14.8575 10.8257 14.9675 10.8358 15.0766C10.8561 15.297 10.9631 15.5002 11.1333 15.6417C11.3035 15.7831 11.5229 15.8512 11.7432 15.8309C11.9636 15.8105 12.1669 15.7035 12.3083 15.5333L16.475 10.5333C16.503 10.4936 16.5281 10.4518 16.55 10.4083C16.55 10.3667 16.5916 10.3417 16.6083 10.3C16.6461 10.2045 16.6659 10.1027 16.6666 10C16.6659 9.89727 16.6461 9.79556 16.6083 9.70001C16.6083 9.65834 16.5666 9.63334 16.55 9.59167C16.5281 9.54822 16.503 9.50644 16.475 9.46667L12.3083 4.46667C12.23 4.3726 12.1318 4.29695 12.0209 4.2451C11.91 4.19325 11.7891 4.16647 11.6666 4.16667C11.4719 4.16629 11.2832 4.23411 11.1333 4.35834C11.0489 4.4283 10.9792 4.51421 10.9281 4.61117C10.8769 4.70813 10.8454 4.81422 10.8354 4.92336C10.8253 5.03251 10.8369 5.14257 10.8694 5.24724C10.9019 5.35191 10.9548 5.44913 11.025 5.53334L14.05 9.16667H4.16665C3.94563 9.16667 3.73367 9.25447 3.57739 9.41075C3.42111 9.56703 3.33331 9.77899 3.33331 10C3.33331 10.221 3.42111 10.433 3.57739 10.5893C3.73367 10.7455 3.94563 10.8333 4.16665 10.8333Z" fill="white"/>
</svg>
