<svg width="11" height="11" viewBox="0 0 11 11" fill="none" xmlns="http://www.w3.org/2000/svg">
<path d="M4.70329 0.816631C5.07012 0.0734625 6.12987 0.073462 6.4967 0.81663L7.34515 2.53549C7.49069 2.83034 7.77188 3.0348 8.09723 3.08235L9.99621 3.35992C10.8161 3.47976 11.1429 4.4876 10.5493 5.06576L9.17679 6.40261C8.94091 6.63235 8.83325 6.96348 8.88891 7.28801L9.21262 9.17543C9.35274 9.99239 8.49519 10.6154 7.76156 10.2295L6.06545 9.33758C5.77407 9.18434 5.42593 9.18434 5.13455 9.33758L3.43843 10.2295C2.7048 10.6154 1.84725 9.99239 1.98737 9.17543L2.31108 7.28801C2.36674 6.96348 2.25908 6.63235 2.02321 6.40261L0.650675 5.06576C0.0570818 4.4876 0.383866 3.47976 1.20378 3.35992L3.10276 3.08235C3.42812 3.0348 3.7093 2.83034 3.85484 2.53549L4.70329 0.816631Z" fill="white"/>
</svg>
